<svg viewBox="0 0 320 80" xmlns="http://www.w3.org/2000/svg">
  <style>
    .frame { stroke: #0B0F14; }
    .kfill { fill: #0B0F14; }
    .dot { fill: #E04E28; }
    .wordmark { font-family: 'Space Grotesk', 'Inter', sans-serif; font-weight: 700; font-size: 36px; letter-spacing: -1.08px; fill: #0B0F14; }
    @media (prefers-color-scheme: dark) {
      .frame { stroke: #E8EDF3; }
      .kfill { fill: #E8EDF3; }
      .dot { fill: #FF6A3D; }
      .wordmark { fill: #E8EDF3; }
    }
  </style>
  <!-- K-mark at 80x80 -->
  <rect x="4" y="4" width="72" height="72" rx="16" ry="16" fill="none" class="frame" stroke-width="2"/>
  <g transform="translate(20, 15) scale(0.4)">
    <rect x="0" y="0" width="20" height="124" rx="10" class="kfill"/>
    <path d="M 16,62 C 26,52 44,32 62,18 C 72,10 80,8 84,14 C 86,18 82,24 76,28 C 60,40 40,56 28,66 C 22,70 18,68 16,64 Z" class="kfill"/>
    <path d="M 16,62 C 26,72 44,92 62,106 C 72,114 80,116 84,110 C 86,106 82,100 76,96 C 60,84 40,68 28,58 C 22,54 18,56 16,60 Z" class="kfill"/>
    <circle cx="18" cy="62" r="10" class="dot"/>
  </g>
  <!-- Wordmark -->
  <text x="96" y="52" class="wordmark">KnowMe</text>
</svg>
