<svg viewBox="0 0 200 200" xmlns="http://www.w3.org/2000/svg">
  <style>
    .frame { stroke: #0B0F14; }
    .fill { fill: #0B0F14; }
    .dot { fill: #E04E28; }
    @media (prefers-color-scheme: dark) {
      .frame { stroke: #E8EDF3; }
      .fill { fill: #E8EDF3; }
      .dot { fill: #FF6A3D; }
    }
  </style>
  <rect x="10" y="10" width="180" height="180" rx="40" ry="40" fill="none" class="frame" stroke-width="4.5"/>
  <g transform="translate(50, 38)">
    <rect x="0" y="0" width="20" height="124" rx="10" class="fill"/>
    <path d="M 16,62 C 26,52 44,32 62,18 C 72,10 80,8 84,14 C 86,18 82,24 76,28 C 60,40 40,56 28,66 C 22,70 18,68 16,64 Z" class="fill"/>
    <path d="M 16,62 C 26,72 44,92 62,106 C 72,114 80,116 84,110 C 86,106 82,100 76,96 C 60,84 40,68 28,58 C 22,54 18,56 16,60 Z" class="fill"/>
    <circle cx="18" cy="62" r="10" class="dot"/>
  </g>
</svg>
